<?xml version="1.0" encoding="UTF-8"?>
<svg id="_レイヤー_1" data-name="レイヤー_1" xmlns="http://www.w3.org/2000/svg" version="1.1" viewBox="0 0 24 24">
  <!-- Generator: Adobe Illustrator 29.3.0, SVG Export Plug-In . SVG Version: 2.1.0 Build 146)  -->
  <defs>
    <style>
      .st0 {
        fill: #5f6368;
      }
    </style>
  </defs>
  <path class="st0" d="M17.9,8.2c0,1-.3,1.8-1,2.5-.7.7-1.5,1-2.5,1-.1,0-.3,0-.4,0-.2,0-.3,0-.4,0,.4-.5.7-1,.9-1.6.2-.6.3-1.2.3-1.8s-.1-1.2-.3-1.8c-.2-.6-.5-1.1-.9-1.6.1,0,.3,0,.4-.1.1,0,.3,0,.4,0,1,0,1.8.3,2.5,1,.7.7,1,1.5,1,2.5Z"/>
  <path class="st0" d="M11.8,5.7c-.7-.7-1.5-1-2.5-1s-1.8.3-2.5,1c-.7.7-1,1.5-1,2.5s.3,1.8,1,2.5c.7.7,1.5,1,2.5,1s1.8-.3,2.5-1c.7-.7,1-1.5,1-2.5s-.3-1.8-1-2.5ZM10.7,9.6c-.4.4-.9.6-1.4.6s-1-.2-1.4-.6-.6-.9-.6-1.4.2-1,.6-1.4.9-.6,1.4-.6,1,.2,1.4.6.6.9.6,1.4-.2,1-.6,1.4Z"/>
  <path class="st0" d="M16.9,13.3h-.4c1.4,1.3,2.3,3.2,2.3,5.3v5.3h3.4v-5.3c0-3-2.4-5.3-5.3-5.3Z"/>
  <path class="st0" d="M12,13.4c-.2,0-.4,0-.5,0h-4.3c-3,0-5.3,2.4-5.3,5.3v5.3h15v-5.3c0-2.8-2.1-5-4.8-5.3ZM15.3,22.5H3.3v-3.9c0-2.1,1.7-3.9,3.9-3.9h4.3c2.1,0,3.9,1.7,3.9,3.9v3.9Z"/>
</svg>