<svg xmlns="http://www.w3.org/2000/svg" viewBox="0 0 24 24"><path d="M12 24c-.8-.6-1.7-1.1-2.6-1.5S7.5 22 6.5 22s-1.4 0-2.1.3-1.3.4-1.9.8c-.4.2-.7.2-1 0s-.5-.5-.5-.9V7.4c0-.2 0-.4.1-.5s.2-.3.4-.4c.8-.4 1.6-.7 2.4-.9a10.9 10.9 0 0 1 2.6-.3c.9 0 1.9.1 2.8.4s1.8.6 2.7 1.1v14.8c.9-.5 1.7-.9 2.7-1.2s1.9-.4 2.8-.4 1.2 0 1.8.2l1.7.5V5.9c.3 0 .5.2.7.3s.5.2.7.3c.2 0 .3.2.4.4a.9.9 0 0 1 .1.5v14.8c0 .4-.2.7-.5.9a.91.91 0 0 1-1 0c-.6-.3-1.3-.6-1.9-.8s-1.4-.3-2.1-.3c-1 0-2 .2-2.9.5s-1.8.8-2.6 1.5zm2-5V6.8l5-5v12.7L14 19zm-4 1.6V8c-.6-.2-1.1-.4-1.7-.5s-1.2-.2-1.8-.2-1.2 0-1.8.2L3 8v12.7l1.7-.5c.5-.1 1.2-.2 1.8-.2s1.2 0 1.8.2l1.7.5zm0 0V8v12.6z" fill="#5f6368"/></svg>
